<svg width="72" height="72" viewBox="0 0 72 72" fill="none" xmlns="http://www.w3.org/2000/svg">
<path d="M55.2618 26.2245C53.3075 26.2245 51.4438 26.6178 49.7447 27.3284L45.6819 19.4547H51.3603C51.9763 19.4547 52.4775 19.9553 52.4775 20.5706C52.4775 21.1859 51.9763 21.6865 51.3603 21.6865H50.1487C49.511 21.6865 48.9943 22.2028 48.9943 22.8397C48.9943 23.4765 49.511 23.9928 50.1487 23.9928H51.3603C53.2495 23.9928 54.7865 22.4576 54.7865 20.5706C54.7865 18.6836 53.2497 17.1484 51.3603 17.1484H43.7882C43.3857 17.1484 43.0121 17.358 42.8024 17.7013C42.5929 18.0447 42.5776 18.4724 42.762 18.8299L44.7823 22.7454H28.1205L26.4396 19.4547H29.0978C29.7355 19.4547 30.2523 18.9384 30.2523 18.3016C30.2523 17.6647 29.7355 17.1484 29.0978 17.1484H21.5255C20.8878 17.1484 20.3711 17.6647 20.3711 18.3016C20.3711 18.9384 20.8878 19.4547 21.5255 19.4547H23.8474L26.0911 23.8471L23.454 27.9281C21.4355 26.8418 19.1284 26.2245 16.6794 26.2245C8.77769 26.2245 2.34912 32.6454 2.34912 40.5379C2.34912 48.4304 8.77769 54.8515 16.6794 54.8515C24.1924 54.8515 30.3731 49.0464 30.9629 41.6911H34.3505L33.0345 45.9681H32.2769C31.6392 45.9681 31.1224 46.4844 31.1224 47.1212C31.1224 47.7581 31.6392 48.2744 32.2769 48.2744H36.433C37.0707 48.2744 37.5875 47.7581 37.5875 47.1212C37.5875 46.4844 37.0707 45.9681 36.433 45.9681H35.45L36.9691 41.0306L46.5753 26.2202L47.6942 28.3885C43.6371 30.919 40.9316 35.4185 40.9316 40.5379C40.9316 48.4304 47.3602 54.8515 55.262 54.8515C63.1637 54.8515 69.5922 48.4304 69.5922 40.5379C69.5921 32.6454 63.1635 26.2245 55.2618 26.2245ZM27.3044 26.2222L34.0277 39.3848H30.9628C30.63 35.2358 28.5181 31.5807 25.3916 29.1821L27.3044 26.2222ZM28.644 39.3848H18.7987L24.134 31.1285C26.6291 33.105 28.324 36.0466 28.644 39.3848ZM16.6794 52.5453C10.0507 52.5453 4.65807 47.1589 4.65807 40.5379C4.65807 33.9171 10.0507 28.5306 16.6794 28.5306C18.6672 28.5306 20.5422 29.018 22.1957 29.8749L15.7093 39.9125C15.4801 40.2672 15.4633 40.7187 15.6656 41.0894C15.8677 41.4601 16.2567 41.6909 16.6794 41.6909H28.644C28.0609 47.7728 22.9184 52.5453 16.6794 52.5453ZM36.0319 38.2337L29.2985 25.0515H44.582L36.0319 38.2337ZM55.2618 52.5453C48.6331 52.5453 43.2404 47.1588 43.2404 40.5379C43.2404 36.3101 45.4413 32.5884 48.7569 30.4483L54.2356 41.0662C54.4406 41.4634 54.8442 41.6912 55.2627 41.6912C55.4408 41.6912 55.6216 41.6499 55.7907 41.5628C56.3577 41.2712 56.5802 40.5758 56.2881 40.0095L50.8077 29.3885C52.1863 28.8372 53.6884 28.5305 55.2618 28.5305C61.8905 28.5305 67.2831 33.917 67.2831 40.5378C67.2831 47.1589 61.8905 52.5453 55.2618 52.5453Z" fill="#FF8A00"/>
</svg>
